<?xml version="1.0" encoding="utf-8"?>
<!-- Generator: Adobe Illustrator 25.2.2, SVG Export Plug-In . SVG Version: 6.00 Build 0)  -->
<svg version="1.1" id="Layer_1" xmlns="http://www.w3.org/2000/svg" xmlns:xlink="http://www.w3.org/1999/xlink" x="0px" y="0px"
	 viewBox="0 0 2500 791.5" style="enable-background:new 0 0 2500 791.5;" xml:space="preserve">
<style type="text/css">
	.st0{clip-path:url(#SVGID_2_);}
	.st1{clip-path:url(#SVGID_4_);}
	.st2{fill:#DFF1F2;}
</style>
<g>
	<defs>
		<path id="SVGID_1_" d="M620.4,748.8c-3,6-9,6-12,0L273.5,1h114.1c49.1,0,93.5,29,113.2,73.9l113.7,258.3L711.1,129
			c20.5-43.3,64-70.8,111.9-70.8h107.4L620.4,748.8z"/>
	</defs>
	<clipPath id="SVGID_2_">
		<use xlink:href="#SVGID_1_"  style="overflow:visible;"/>
	</clipPath>
	<g class="st0">
		<g>
			<defs>
				<rect id="SVGID_3_" x="268.5" y="-4" width="666.8" height="762.3"/>
			</defs>
			<clipPath id="SVGID_4_">
				<use xlink:href="#SVGID_3_"  style="overflow:visible;"/>
			</clipPath>
			<g class="st1">
				
					<image style="overflow:visible;enable-background:new    ;" width="1390" height="1589" xlink:href="70C4C447CF469D76.png"  transform="matrix(0.48 0 0 0.48 268.32 -4.36)">
				</image>
			</g>
		</g>
	</g>
</g>
<path class="st2" d="M384.2,296.5l-21.4,50.2l-6.9-15.7l-0.4,0.8l-117.8-257C217.5,30.8,172.5,2.3,122.5,1.5H2.3l346.9,744
	c3.1,6,9.4,6,12.5,0l114.6-245.3L384.2,296.5z"/>
<path class="st2" d="M834.7,328.3l-22.3-7.5c-16.3-5.4-33.1-10-49-16.4c-22.2-9-35.6-27-43.9-48.9c-13.9-36.6-16.3-79.1-12.7-117.8
	c-0.4,0.1-0.3,0.1-0.7,0.2c-57,19.7-99.3,65.7-99.3,136.6c0,81.3,50.8,124.9,122.7,148.8l32.1,10.9l26,8.7
	c32.6,10.9,48.6,21.1,48.6,42.1c0,27.5-23.3,39.1-62.4,39.1c-18.6,0-34.6-3.4-48.4-9.3l-46.1,102.7c28,9.9,61.1,16.3,100.2,16.3
	c130.7,0,187.2-65.3,187.2-156C966.7,408.1,933.4,360.9,834.7,328.3z"/>
<path class="st2" d="M939.2,192.5c-14.2-16.7-31.4-30.6-50.8-40.8l-45.6,101.7c7.5,5.4,14.5,11.5,20.9,18.2L939.2,192.5z"/>
<path class="st2" d="M1669.1,631h-129.2l240.2-506.6c2.2-5.1,6.6-5.1,8.7,0L2028.3,631h-136.4l-18.9-42.5h-185.8L1669.1,631z
	 M1778.7,373.3L1729.3,489h100.1L1778.7,373.3z"/>
<path class="st2" d="M2237.1,631H2105V133.1h187.2c132.8,0,207.6,84.9,207.6,195.5s-74.8,194.7-207.6,194.7h-55.1L2237.1,631z
	 M2285.7,410.6c59.5,0,81.2-33.7,81.2-82s-21.7-82.8-81.2-82.8h-48.6v164.7L2285.7,410.6z"/>
<path class="st2" d="M1403.6,630.2c-2,4.1-6.1,4.1-8.2,0l-228-509.1h77.7c33.4,0,63.6,19.7,77.1,50.3l77.4,175.8l65.8-139
	c13.9-29.5,43.6-48.3,76.2-48.2h73.1L1403.6,630.2z"/>
<path class="st2" d="M1242.8,322.3l-14.6,34.2l-4.7-10.7l-0.3,0.6l-80.2-175c-13.8-30-44.4-49.4-78.4-49.9h-81.8l236.2,506.5
	c2.1,4.1,6.4,4.1,8.5,0l78-167L1242.8,322.3z"/>
</svg>
