<svg id="Layer_1" data-name="Layer 1" xmlns="http://www.w3.org/2000/svg" xmlns:xlink="http://www.w3.org/1999/xlink" viewBox="0 0 336.41 337.42"><defs><style>.cls-1{fill:#f0b90b;}.cls-2,.cls-4{fill:#fff;}.cls-2{fill-rule:evenodd;}.cls-3{fill:#53ae94;}.cls-5{fill:#2775ca;}</style></defs><title>BUSD USDT USDC-01</title><circle class="cls-1" cx="91.78" cy="281.67" r="55.75"/><path class="cls-2" d="M68.06,267.51l23.75-23.76,9.47,9.48L77.53,277Zm0,28.38,38-38,9.47,9.47-38,38Zm52.15-23.74-37.95,38,9.47,9.47,38-38Zm-66.35,9.54,9.47-9.47,9.47,9.47-9.47,9.47Z"/><path class="cls-3" d="M168.34,225.91a55.76,55.76,0,1,1-55.75,55.76,55.76,55.76,0,0,1,55.75-55.76"/><path class="cls-4" d="M175.22,274.24v-8.3h19V253.31H142.54v12.63h19v8.29c-15.42.71-27,3.76-27,7.42s11.6,6.71,27,7.42v26.57h13.72V289.07c15.38-.71,27-3.76,27-7.41s-11.57-6.71-27-7.42m0,12.58h0c-.39,0-2.38.15-6.81.15-3.54,0-6-.1-6.9-.15h0c-13.62-.6-23.79-3-23.79-5.81s10.17-5.21,23.79-5.81v9.26c.89.06,3.44.21,7,.21,4.23,0,6.36-.17,6.75-.21V275.2c13.59.61,23.73,3,23.73,5.81s-10.14,5.2-23.73,5.81"/><path class="cls-5" d="M244.87,337.4a55.73,55.73,0,1,0-55.73-55.73A55.6,55.6,0,0,0,244.87,337.4Z"/><path class="cls-4" d="M260.2,290.49c0-8.13-4.88-10.91-14.63-12.07-7-.93-8.36-2.79-8.36-6s2.32-5.34,7-5.34c4.18,0,6.5,1.39,7.66,4.87a1.74,1.74,0,0,0,1.63,1.16h3.71a1.59,1.59,0,0,0,1.63-1.62v-.23a11.6,11.6,0,0,0-10.45-9.52v-5.58c0-.93-.7-1.62-1.86-1.85H243c-.93,0-1.63.69-1.86,1.85v5.34c-7,.93-11.38,5.58-11.38,11.38,0,7.67,4.64,10.68,14.4,11.85,6.5,1.16,8.59,2.55,8.59,6.27s-3.25,6.27-7.66,6.27c-6,0-8.13-2.56-8.83-6a1.7,1.7,0,0,0-1.62-1.4h-3.95a1.59,1.59,0,0,0-1.63,1.63v.23c.93,5.81,4.65,10,12.31,11.15v5.57c0,.93.7,1.63,1.86,1.86h3.48c.93,0,1.63-.7,1.86-1.86V302.8c7-1.16,11.61-6,11.61-12.31Z"/><path class="cls-4" d="M233,314.87a34.75,34.75,0,0,1,0-65.25,2.32,2.32,0,0,0,1.39-2.32v-3.25a1.76,1.76,0,0,0-1.39-1.86,1.42,1.42,0,0,0-.93.23,41.79,41.79,0,0,0,0,79.65,1.41,1.41,0,0,0,2.09-.93c.23-.23.23-.46.23-.93V317A3.1,3.1,0,0,0,233,314.87Zm24.62-72.45a1.41,1.41,0,0,0-2.09.93c-.24.23-.24.47-.24.93v3.25a3.06,3.06,0,0,0,1.4,2.32,34.76,34.76,0,0,1,0,65.26,2.33,2.33,0,0,0-1.4,2.32v3.25a1.78,1.78,0,0,0,1.4,1.86,1.38,1.38,0,0,0,.93-.24,42,42,0,0,0,0-79.88Z"/><image width="753" height="621" transform="translate(37.17) scale(0.35)" xlink:href="../../EPS.b4254875.png"/></svg>