<svg id="Layer_1" data-name="Layer 1" xmlns="http://www.w3.org/2000/svg" xmlns:xlink="http://www.w3.org/1999/xlink" viewBox="0 0 353.53 121.47"><defs><style>.cls-1{fill:url(#linear-gradient);}.cls-2{fill:#fff;}.cls-3{fill:#dff1f2;}.cls-4{fill:url(#linear-gradient-2);}</style><linearGradient id="linear-gradient" x1="239.91" y1="38.74" x2="353.53" y2="38.74" gradientUnits="userSpaceOnUse"><stop offset="0" stop-color="#257d79"/><stop offset="0.13" stop-color="#2b8e89"/><stop offset="0.35" stop-color="#34a49e"/><stop offset="0.49" stop-color="#37aca6"/><stop offset="0.64" stop-color="#34a49f"/><stop offset="0.85" stop-color="#2c8f8a"/><stop offset="1" stop-color="#257d79"/></linearGradient><linearGradient id="linear-gradient-2" x1="43.57" y1="60.63" x2="149.41" y2="60.63" gradientTransform="matrix(1, 0, 0, -1, 0, 121.44)" gradientUnits="userSpaceOnUse"><stop offset="0.23" stop-color="#257c78"/><stop offset="0.75" stop-color="#39aea8"/></linearGradient></defs><title>wault old white</title><path class="cls-1" d="M239.91,22.34H342.25a11.28,11.28,0,0,1,11.28,11.28V55.13a0,0,0,0,1,0,0H251.2a11.28,11.28,0,0,1-11.28-11.28V22.34A0,0,0,0,1,239.91,22.34Z"/><path class="cls-2" d="M260.17,38.79c0-7.57,6.24-12.86,13.51-12.86s13.51,5.26,13.51,12.84S281,51.67,273.72,51.68,260.17,46.38,260.17,38.79Zm20.11,0c0-4-2.42-7-6.63-7s-6.61,3.08-6.61,7,2.42,7.06,6.63,7,6.62-3.08,6.62-7Z" transform="translate(0 -0.07)"/><path class="cls-2" d="M290.3,26.2H297l0,19.45h10.67v5.66h-17.4Z" transform="translate(0 -0.07)"/><path class="cls-2" d="M310.82,26.17h9.72c7.25,0,12.73,4.75,12.74,12.54s-5.46,12.57-12.7,12.58h-9.73Zm9,19.45c4.07,0,6.57-2.7,6.57-6.88s-2.53-6.87-6.59-6.87h-2.25V45.62Z" transform="translate(0 -0.07)"/><path class="cls-3" d="M131.32,120.48h-15.6l29-60.63c.27-.62.79-.62,1.06,0l28.91,60.63H158.21l-2.27-5.08H133.51Zm13.23-30.84-5.92,13.81h12.09Z" transform="translate(0 -0.07)"/><path class="cls-3" d="M175.68,96.33V59.47h15.94V96.15c0,6.81,3.16,10.7,9.87,10.7s9.86-3.94,9.86-10.7V59.47h16V96.36c0,16.19-11,24.15-25.85,24.15S175.68,112.52,175.68,96.33Z" transform="translate(0 -0.07)"/><path class="cls-3" d="M237.13,59.47h15.94v47.35h25.32v13.73H237.13Z" transform="translate(0 -0.07)"/><path class="cls-3" d="M289.63,73.18H273.85V59.47h47.49V73.18H305.56v47.3H289.63Z" transform="translate(0 -0.07)"/><path class="cls-4" d="M99.48,120.56a1,1,0,0,1-2,0L43.57.07H62A19.94,19.94,0,0,1,80.2,12L98.52,53.6l15.56-32.9a19.92,19.92,0,0,1,18-11.43h17.31Z" transform="translate(0 -0.07)"/><path class="cls-3" d="M58.09,55.78l3.45-8.1,14.8,32.83L57.91,120a1.06,1.06,0,0,1-1.39.59,1.08,1.08,0,0,1-.58-.59L0,.15H19.36A20.71,20.71,0,0,1,37.94,12l19,41.42Z" transform="translate(0 -0.07)"/></svg>