<svg id="Layer_1" data-name="Layer 1" xmlns="http://www.w3.org/2000/svg" xmlns:xlink="http://www.w3.org/1999/xlink" viewBox="0 0 353.53 121.13"><defs><style>.cls-1{fill:url(#linear-gradient);}.cls-2{fill:#201d1e;}.cls-3{fill:url(#linear-gradient-2);}.cls-4{fill:#fff;}</style><linearGradient id="linear-gradient" x1="59.47" y1="58.12" x2="156.81" y2="82.39" gradientTransform="matrix(1, 0, 0, -1, 0, 121.59)" gradientUnits="userSpaceOnUse"><stop offset="0.15" stop-color="#201d1e"/><stop offset="0.2" stop-color="#1e2325"/><stop offset="0.27" stop-color="#182d32"/><stop offset="0.34" stop-color="#1c4244"/><stop offset="0.4" stop-color="#246262"/><stop offset="0.48" stop-color="#2d8380"/><stop offset="0.55" stop-color="#339a95"/><stop offset="0.62" stop-color="#37a8a3"/><stop offset="0.68" stop-color="#38ada7"/></linearGradient><linearGradient id="linear-gradient-2" x1="239.91" y1="38.81" x2="353.53" y2="38.81" gradientUnits="userSpaceOnUse"><stop offset="0" stop-color="#257d79"/><stop offset="0.13" stop-color="#2b8e89"/><stop offset="0.35" stop-color="#34a49e"/><stop offset="0.49" stop-color="#37aca6"/><stop offset="0.64" stop-color="#34a49f"/><stop offset="0.85" stop-color="#2c8f8a"/><stop offset="1" stop-color="#257d79"/></linearGradient></defs><title>wault old</title><path class="cls-1" d="M99.47,120.37a1,1,0,0,1-1.94,0L43.64,0H62A19.91,19.91,0,0,1,80.22,11.88L98.51,53.45l15.54-32.86a19.91,19.91,0,0,1,18-11.4h17.28Z" transform="translate(0 0)"/><path class="cls-2" d="M58,55.63l3.44-8.09L76.27,80.37,57.83,119.78a1.06,1.06,0,0,1-1.35.65,1.1,1.1,0,0,1-.65-.65L0,.07H19.34A20.66,20.66,0,0,1,37.88,11.88l19,41.36Z" transform="translate(0 0)"/><path class="cls-2" d="M131.31,120.37H115.72l29-60.63c.26-.61.79-.61,1.05,0l28.91,60.63H158.21l-2.28-5.09H133.5Zm13.24-30.84-6,13.84h12.08Z" transform="translate(0 0)"/><path class="cls-2" d="M175.68,96.17V59.28h15.94V96c0,6.81,3.15,10.7,9.9,10.7s9.9-3.89,9.9-10.7V59.28h16V96.17c0,16.18-11,24.15-25.85,24.15S175.68,112.37,175.68,96.17Z" transform="translate(0 0)"/><path class="cls-2" d="M237.13,59.28h15.94v47.3h25.32v13.79H237.13Z" transform="translate(0 0)"/><path class="cls-2" d="M289.62,73H273.85V59.28h47.49V73H305.57v47.35H289.62Z" transform="translate(0 0)"/><path class="cls-3" d="M239.91,22.41H342.25a11.28,11.28,0,0,1,11.28,11.28V55.2a0,0,0,0,1,0,0H251.2a11.28,11.28,0,0,1-11.28-11.28V22.41A0,0,0,0,1,239.91,22.41Z"/><path class="cls-4" d="M260.17,38.79c0-7.57,6.24-12.86,13.51-12.86s13.51,5.26,13.51,12.84S281,51.67,273.72,51.68,260.17,46.38,260.17,38.79Zm20.11,0c0-4-2.42-7-6.63-7s-6.61,3.08-6.61,7,2.42,7.06,6.63,7,6.62-3.08,6.62-7Z" transform="translate(0 0)"/><path class="cls-4" d="M290.3,26.2H297l0,19.45h10.67v5.66h-17.4Z" transform="translate(0 0)"/><path class="cls-4" d="M310.82,26.17h9.72c7.25,0,12.73,4.75,12.74,12.54s-5.46,12.57-12.7,12.58h-9.73Zm9,19.45c4.07,0,6.57-2.7,6.57-6.88s-2.53-6.87-6.59-6.87h-2.25V45.62Z" transform="translate(0 0)"/></svg>