<svg id="Layer_1" data-name="Layer 1" xmlns="http://www.w3.org/2000/svg" xmlns:xlink="http://www.w3.org/1999/xlink" viewBox="0 0 74.16 27.89"><defs><style>.cls-1{fill:#221f1f;}.cls-2{fill:url(#linear-gradient);}.cls-3{fill:#231f20;}</style><linearGradient id="linear-gradient" x1="10.15" y1="13.93" x2="34.5" y2="13.93" gradientUnits="userSpaceOnUse"><stop offset="0.22" stop-color="#17262b"/><stop offset="0.29" stop-color="#193034"/><stop offset="0.43" stop-color="#1d4a4c"/><stop offset="0.6" stop-color="#247572"/><stop offset="0.62" stop-color="#257c78"/><stop offset="0.65" stop-color="#288480"/><stop offset="0.76" stop-color="#319b96"/><stop offset="0.86" stop-color="#37a9a3"/><stop offset="0.94" stop-color="#39aea8"/></linearGradient></defs><title>wault-logo-new</title><path class="cls-1" d="M30.33,27.71h-3.6l6.69-14c.06-.15.19-.15.25,0l6.67,14h-3.8L36,26.53H30.83Zm3.05-7.12L32,23.78h2.8Z" transform="translate(-0.09 0.02)"/><path class="cls-1" d="M40.57,22.13V13.61h3.69v8.48c0,1.57.72,2.47,2.28,2.47s2.29-.9,2.29-2.47V13.61h3.68v8.52c0,3.74-2.53,5.58-6,5.58S40.57,25.92,40.57,22.13Z" transform="translate(-0.09 0.02)"/><path class="cls-1" d="M54.76,13.61h3.69V24.54h5.84v3.17H54.76Z" transform="translate(-0.09 0.02)"/><path class="cls-1" d="M66.89,16.78H63.25V13.61h11v3.17H70.57V27.71H66.89Z" transform="translate(-0.09 0.02)"/><path class="cls-2" d="M23,27.71a.24.24,0,0,1-.45,0L10.15,0h4.23a4.56,4.56,0,0,1,4.19,2.74l4.22,9.58,3.58-7.58A4.58,4.58,0,0,1,30.51,2.1h4Z" transform="translate(-0.09 0.02)"/><path class="cls-3" d="M13.46,12.8l.79-1.86,3.41,7.55-4.24,9.09a.25.25,0,0,1-.47,0L.09,0H4.55A4.77,4.77,0,0,1,8.82,2.72l4.37,9.53Z" transform="translate(-0.09 0.02)"/></svg>