<svg id="Layer_1" data-name="Layer 1" xmlns="http://www.w3.org/2000/svg" xmlns:xlink="http://www.w3.org/1999/xlink" viewBox="0 0 69.78 20.95"><defs><style>.cls-1{fill:url(#linear-gradient);}.cls-2{fill:#231f20;}</style><linearGradient id="linear-gradient" x1="7.64" y1="11.52" x2="25.94" y2="11.52" gradientTransform="matrix(1, 0, 0, -1, -0.09, 22)" gradientUnits="userSpaceOnUse"><stop offset="0.22" stop-color="#17262b"/><stop offset="0.29" stop-color="#193034"/><stop offset="0.43" stop-color="#1d4a4c"/><stop offset="0.6" stop-color="#247572"/><stop offset="0.62" stop-color="#257c78"/><stop offset="0.65" stop-color="#288480"/><stop offset="0.76" stop-color="#319b96"/><stop offset="0.86" stop-color="#37a9a3"/><stop offset="0.94" stop-color="#39aea8"/></linearGradient></defs><title>wswap-new</title><path class="cls-1" d="M17.22,20.83a.19.19,0,0,1-.23.11.2.2,0,0,1-.11-.11L7.55,0h3.19a3.44,3.44,0,0,1,3.17,2.05l3.17,7.2,2.69-5.69a3.45,3.45,0,0,1,3.11-2h3Z" transform="translate(0 0)"/><path class="cls-2" d="M10,9.63l.6-1.4L13.2,13.9,10,20.73a.18.18,0,0,1-.35,0L0,0H3.35A3.56,3.56,0,0,1,6.56,2.06L9.84,9.21Z" transform="translate(0 0)"/><path class="cls-2" d="M23.21,9.11l-.62-.21c-.46-.15-.93-.28-1.38-.46A2.27,2.27,0,0,1,20,7.06a7.69,7.69,0,0,1-.34-3.3h0a3.89,3.89,0,0,0-2.8,3.8c0,2.28,1.41,3.5,3.41,4.18l.89.32.73.24c.91.32,1.36.6,1.35,1.19,0,.77-.65,1.09-1.75,1.09a3.27,3.27,0,0,1-1.35-.28l-1.27,2.87a8.32,8.32,0,0,0,2.8.47c3.66,0,5.25-1.79,5.26-4.33C26.91,11.37,26,10,23.21,9.11Z" transform="translate(0 0)"/><path class="cls-2" d="M26.12,5.31A4.89,4.89,0,0,0,24.7,4.17L23.42,7a4.07,4.07,0,0,1,.59.51Z" transform="translate(0 0)"/><path class="cls-2" d="M46.54,17.57H42.91L49.65,3.4c.06-.14.18-.14.24,0l6.7,14.17H52.77l-.52-1.19h-5.2Zm3.07-7.21L48.23,13.6H51Z" transform="translate(0 0)"/><path class="cls-2" d="M62.43,17.57H58.74V3.64H64c3.72,0,5.81,2.38,5.81,5.47S67.69,14.56,64,14.56H62.43Zm1.36-6.16a2,2,0,0,0,2.27-1.68,2.15,2.15,0,0,0,0-.62,2,2,0,0,0-1.64-2.3,1.67,1.67,0,0,0-.63,0H62.43v4.61Z" transform="translate(0 0)"/><path class="cls-2" d="M39.11,17.55a.12.12,0,0,1-.15.08h0a.11.11,0,0,1-.08-.08L32.51,3.31h2.17a2.34,2.34,0,0,1,2.15,1.41L39,9.64l1.84-3.89A2.37,2.37,0,0,1,43,4.4h2Z" transform="translate(0 0)"/><path class="cls-2" d="M34.61,9l-.4,1-.13-.3h0l-2.25-5a2.42,2.42,0,0,0-2.19-1.39h-2.3l6.57,14.18a.12.12,0,0,0,.15.08h0a.11.11,0,0,0,.08-.08l2.19-4.67Z" transform="translate(0 0)"/></svg>