<svg id="Layer_1" data-name="Layer 1" xmlns="http://www.w3.org/2000/svg" viewBox="0 0 24 24"><defs><style>.cls-1{fill:#3aaea8;}</style></defs><title>dvoika</title><path class="cls-1" d="M21,1H3A1.79,1.79,0,0,0,1.24,2.8V21.2A1.79,1.79,0,0,0,3,23H21a1.79,1.79,0,0,0,1.77-1.81V2.8A1.79,1.79,0,0,0,21,1ZM4.42,6.34H9.66v2H4.42ZM11.2,18.66H8.79v2.56h-2V18.66H4.42V16.74h2.4V14.18h2v2.56H11.2ZM9.84,11.87l3.55-4.78L10.3,2.78h2.59l1.24,1.76a6.23,6.23,0,0,1,.56,1.12,5,5,0,0,1,.54-1.12l1.3-1.76h2.4l-3,4.14,3.55,4.95h-2.6L15.23,9.6a7,7,0,0,1-.67-1.25,6.41,6.41,0,0,1-.65,1.25l-1.67,2.27Zm9.74,8.36H12.89v-1.9h6.69Zm0-3.16H12.89v-1.9h6.69Z"/></svg>