<svg id="Layer_1" data-name="Layer 1" xmlns="http://www.w3.org/2000/svg" viewBox="0 0 24 24"><defs><style>.cls-1{fill:#3bafa9;}</style></defs><title>333</title><path id="surface1" class="cls-1" d="M20.73,5.1a11.54,11.54,0,0,0-5.46-2.18L15,3.45a10.57,10.57,0,0,1,5.17,2.74A16.11,16.11,0,0,0,12,4,16.11,16.11,0,0,0,3.82,6.19,10.79,10.79,0,0,1,9,3.45l-.26-.53A11.41,11.41,0,0,0,3.27,5.1S.48,9.15,0,17.1a10.31,10.31,0,0,0,7.09,3.28l.9-1.2A10.87,10.87,0,0,1,3.27,16,13.74,13.74,0,0,0,12,18.74,13.74,13.74,0,0,0,20.73,16,10.87,10.87,0,0,1,16,19.18l.9,1.2A10.31,10.31,0,0,0,24,17.1C23.52,9.15,20.73,5.1,20.73,5.1ZM8.45,14.92a2.05,2.05,0,0,1-1.9-2.18,2.05,2.05,0,0,1,1.9-2.18,2.05,2.05,0,0,1,1.91,2.18A2.05,2.05,0,0,1,8.45,14.92Zm7.1,0a2.05,2.05,0,0,1-1.91-2.18,2.05,2.05,0,0,1,1.91-2.18,2.05,2.05,0,0,1,1.9,2.18A2.05,2.05,0,0,1,15.55,14.92Z"/></svg>