<svg id="Layer_1" data-name="Layer 1" xmlns="http://www.w3.org/2000/svg" viewBox="0 0 24 24"><defs><style>.cls-1{fill:#3bafa9;}</style></defs><title>666</title><path class="cls-1" d="M12,.3A12,12,0,0,0,8.21,23.68c.6.11.79-.26.79-.58V20.87c-3.33.73-4-1.42-4-1.42A3.21,3.21,0,0,0,3.64,17.7C2.55,17,3.72,17,3.72,17a2.5,2.5,0,0,1,1.84,1.24,2.55,2.55,0,0,0,3.49,1,2.59,2.59,0,0,1,.76-1.6c-2.66-.31-5.46-1.33-5.46-5.93A4.67,4.67,0,0,1,5.58,8.45,4.36,4.36,0,0,1,5.7,5.27S6.71,5,9,6.5a12,12,0,0,1,3-.4,12.07,12.07,0,0,1,3,.4C17.3,5,18.3,5.27,18.3,5.27a4.25,4.25,0,0,1,.12,3.18,4.63,4.63,0,0,1,1.24,3.22c0,4.61-2.81,5.62-5.48,5.92A2.86,2.86,0,0,1,15,19.81V23.1c0,.32.19.7.8.58A12,12,0,0,0,12,.3Z"/></svg>