<svg id="Layer_1" data-name="Layer 1" xmlns="http://www.w3.org/2000/svg" viewBox="0 0 24 24"><defs><style>.cls-1{fill:#39aea8;}</style></defs><title>i</title><path class="cls-1" d="M21.79,0H2.21A2,2,0,0,0,.29,2V22a2,2,0,0,0,1.92,2H21.79a2,2,0,0,0,1.92-2V2A2,2,0,0,0,21.79,0ZM12,22.05A10,10,0,0,1,2.18,12,10,10,0,0,1,12,2,10,10,0,0,1,21.82,12,10,10,0,0,1,12,22.05Z"/><rect class="cls-1" x="10.86" y="9.8" width="2.28" height="9.65"/><path class="cls-1" d="M12,4.55a1.5,1.5,0,0,0-1.5,1.5h0a1.5,1.5,0,1,0,3,0h0A1.49,1.49,0,0,0,12,4.55Z"/></svg>