<svg id="Layer_1" data-name="Layer 1" xmlns="http://www.w3.org/2000/svg" viewBox="0 0 24 24"><defs><style>.cls-1{fill:#3bafa9;}</style></defs><title>sun 1</title><path class="cls-1" d="M18.33,12.12a6.21,6.21,0,0,1-6.45,6,6.2,6.2,0,0,1-6.2-6.21,6.2,6.2,0,0,1,6.44-6A6.22,6.22,0,0,1,18.33,12.12Z"/><path class="cls-1" d="M12.66,4.24V.65a.66.66,0,0,0-1.32,0V4.24a.66.66,0,0,0,1.32,0Z"/><path class="cls-1" d="M12.66,23.36V19.77a.66.66,0,0,0-1.32,0v3.59a.66.66,0,0,0,1.32,0Z"/><path class="cls-1" d="M19.77,12.67h3.58a.67.67,0,0,0,0-1.33H19.77a.67.67,0,0,0,0,1.33Z"/><path class="cls-1" d="M.65,12.67H4.23a.67.67,0,0,0,0-1.33H.65a.67.67,0,0,0,0,1.33Z"/><path class="cls-1" d="M18,7,20.5,4.44a.66.66,0,0,0-.94-.93L17,6A.67.67,0,0,0,18,7Z"/><path class="cls-1" d="M4.44,20.5,7,18A.67.67,0,0,0,6,17L3.5,19.57a.66.66,0,0,0,.94.93Z"/><path class="cls-1" d="M17,18l2.54,2.53a.66.66,0,0,0,.94-.93L18,17A.67.67,0,0,0,17,18Z"/><path class="cls-1" d="M3.5,4.44,6,7A.67.67,0,0,0,7,6L4.44,3.51a.66.66,0,0,0-.94.93Z"/></svg>