<svg id="Layer_1" data-name="Layer 1" xmlns="http://www.w3.org/2000/svg" viewBox="0 0 24 24"><defs><style>.cls-1{fill:#3bafa9;fill-rule:evenodd;}</style></defs><title>444</title><path id="telegram-1" class="cls-1" d="M18.38,21.78a1.19,1.19,0,0,0,1.11.14,1.14,1.14,0,0,0,.72-.84C21.08,17,23.19,6.66,24,3a.79.79,0,0,0-1.05-.9C18.73,3.6,5.82,8.45.54,10.4a.83.83,0,0,0-.54.8A.82.82,0,0,0,.59,12c2.37.71,5.48,1.7,5.48,1.7S7.52,18,8.28,20.27a.85.85,0,0,0,1.41.37l3.1-2.92S16.36,20.34,18.38,21.78Zm-11-8.68,1.68,5.54.38-3.51L19.61,6a.28.28,0,0,0-.34-.44Z"/></svg>