<svg id="Layer_1" data-name="Layer 1" xmlns="http://www.w3.org/2000/svg" viewBox="0 0 24 24"><defs><style>.cls-1{fill:#3bafa9;}</style></defs><title>555</title><path class="cls-1" d="M24,4.56a9.87,9.87,0,0,1-2.83.77,4.94,4.94,0,0,0,2.17-2.72A10,10,0,0,1,20.21,3.8a4.93,4.93,0,0,0-8.39,4.49A14,14,0,0,1,1.67,3.15,4.93,4.93,0,0,0,3.19,9.72,4.86,4.86,0,0,1,1,9.11a4.94,4.94,0,0,0,4,4.89,4.86,4.86,0,0,1-2.22.08,4.92,4.92,0,0,0,4.6,3.42,9.91,9.91,0,0,1-7.29,2,13.92,13.92,0,0,0,7.55,2.21,13.92,13.92,0,0,0,14-14.64A10.1,10.1,0,0,0,24,4.56Z"/></svg>